<mxfile host="app.diagrams.net" modified="2021-12-24T10:00:48.018Z" agent="5.0 (Macintosh; Intel Mac OS X 10_15_7) AppleWebKit/537.36 (KHTML, like Gecko) Chrome/96.0.4664.110 Safari/537.36" etag="GrUjwgJGSI9SUtSewSjw" version="15.9.4" type="github">
  <diagram id="o7Wk7MlVN47Pbb0QfUeD" name="Page-1">
    <mxGraphModel dx="1186" dy="1094" grid="1" gridSize="10" guides="1" tooltips="1" connect="1" arrows="1" fold="1" page="1" pageScale="1" pageWidth="583" pageHeight="413" math="0" shadow="0">
      <root>
        <mxCell id="0" />
        <mxCell id="1" parent="0" />
        <mxCell id="J9WYhkeCsR0DmFQqnKMW-1" value="" style="shape=image;verticalLabelPosition=bottom;labelBackgroundColor=#ffffff;verticalAlign=top;aspect=fixed;imageAspect=0;image=data:image/svg+xml,PHN2ZyB4bWxucz0iaHR0cDovL3d3dy53My5vcmcvMjAwMC9zdmciIHhtbG5zOnhsaW5rPSJodHRwOi8vd3d3LnczLm9yZy8xOTk5L3hsaW5rIiB0PSIxNjQwMzM1MDg5NDM2IiBjbGFzcz0iaWNvbiIgdmlld0JveD0iMTI0LjczODUxNzc2MTIzMDQ3IDYxLjQ5MzU2MDc5MTAxNTYyNSA3NzMuMDU4MDQ0NDMzNTkzOCA4OTkuMjMxMzIzMjQyMTg3NSIgdmVyc2lvbj0iMS4xIiBwLWlkPSIzNTE0IiBkYXRhLWRhcmtyZWFkZXItaW5saW5lLWZpbGw9IiIgd2lkdGg9IjE1MC45ODc4OTkzMDM0MzYyOCIgaGVpZ2h0PSIxNzUuNjMxMTE3ODIwNzM5NzUiPjxkZWZzPjxzdHlsZSB0eXBlPSJ0ZXh0L2NzcyIvPjwvZGVmcz48cGF0aCBkPSJNNjI4LjAxNDI3IDEyNS44MDExNzFjLTIuMzEyNjcyIDI2LjI1OTA2LTE2LjYxMDMwNiA0Ny41MTQxNTMtMjMuNjcxMTE5IDU2LjU2NDI3My0xMy41MTE3MzUgMTcuMzM2ODU0LTMzLjg0Njg3NiAzMC4xMDM2MjItNTMuNzI1NjIyIDM0LjQ0MTQxNyAxLjg2NTQ4Ny0yNi4zOTEwNjcgMTguNTY5OTM4LTQ4Ljg3MzEwNCAyNC40NDk4NTUtNTYuMDE4ODUxQzU4OC4wNjQzOTYgMTQ1LjA4NjM5OSA2MDguNDA4NzQ3IDEzMS45NTUzMzQgNjI4LjAxNDI3IDEyNS44MDExNzFMNjI4LjAxNDI3IDEyNS44MDExNzF6TTY4MC44ODc0NzggMzMwLjYwMzYyN2M0MC4yNzExOTIgMCA2OS4xNTA5NCA4Ljk3MDMwMiAxMDMuMDYyMjg0IDQxLjI4MjIxOS01NC4xNzE3ODQgNDEuMzg5NjY2LTc2LjQ1ODM2OSAxMTQuMjcwNTU3LTcxLjUzNzI5IDE4NC4yNTM0NDQgNS4wODE3MzkgNzIuNjIxOTk0IDQyLjIwNzI4NyAxNDcuODUxMzczIDEwNC4xMDgxMDMgMTgxLjMzMDg4Mi0xMi40MTE2ODEgMjYuNDUyNDY1LTE4LjQzODk1NCAzNi44NDcyMS0zNi45MjQ5ODEgNjQuODgzNzUzLTMyLjIwNTQ5MyA0OS4xOTc0OTItNjguNjAxNDI0IDk5LjI3Mjk4MS0xMTQuNDYyOTM4IDk5Ljc0MDYzMmwtMC44MDEyNDkgMGMtMTguMzc5NjAzIDAtMzAuMTI1MTExLTUuMzk0ODctNDYuMzgzNC0xMi44MzYzNTMtMjAuOTczNjg0LTkuNjE2MDA4LTQ3LjExMDk3MS0yMS41OTQ4MzEtOTEuMTE4MjU0LTIxLjU5NDgzMWwtMS4zMzQzOTEgMGMtNDQuMjY4MjI2IDAuMjY1MDM2LTcwLjg2MjkzMSAxMi4xMDQ2ODktOTIuMjM0NjgxIDIxLjYyOTYyMy0xNi43MjkwMSA3LjQ1Nzg1Ni0yOC44MjI0NDIgMTIuODUwNjc5LTQ3LjQwOTc3NiAxMi44NTA2NzlsLTEuMTM2ODkzIDBjLTQ3LjE3NDQxNi0wLjM1NjExMS04OC4wNjk4MjUtNTMuNTA2NjM1LTExOC40MzQzODktOTkuNzg1NjU3LTk2LjA2MDgyMy0xNDYuMjcyNDExLTk1LjkwODM1LTMwNS4zODExNzYtNDcuMDA5NjYzLTM4MC43ODY1NjMgMzYuNTIzODQ1LTU2LjA4NzQxMyA5My42Nzc1NDMtOTAuOTA5NDk5IDE0OS4xNDE3NjItOTAuOTA5NDk5IDI4Ljg0MTg4NSAwIDUyLjI1MjA2MSA4LjM0MzAxNSA3Ny4wNTQ5NTcgMTcuMTc4MjQxIDI0LjQ4NDY0NyA4LjcxNTQ5OSA0OS44MDMyODkgMTcuNzQ0MTI5IDc5LjQzNDE0NCAxNy43NDQxMjkgMjguMTEwMjIxIDAgNTAuNzQxNjYxLTguNTU1ODYzIDcyLjYyMzAxOC0xNi44MjYyMjQgMjMuNTkyMzI0LTguOTI0MjUzIDQ4LjAyMDY5LTE4LjE1NDQ3NSA4My4zNjU2ODYtMTguMTU0NDc1TDY4MC44ODc0NzggMzMwLjYwMzYyN3pNNjgwLjg5MzYxOCA2MS40OTQ1NjNjLTQ4LjI0OTkxMSAzLjI2OTQ2My0xMDQuNTQ3MTAxIDM0LjAxNDY5OC0xMzcuNTI0MTY3IDczLjg4NDc1NC0yOS45MDMwNTQgMzYuMzQ2ODEzLTU0LjU5NDQwOSA5MC4xNzM3NDItNDQuOTA3NzkzIDE0Mi40ODAwMzkgMS4yNzcwODYgMC4wNDUwMjUgMi41MjY1NDMgMC4wNTczMDUgMy43ODkzMDMgMC4wNTczMDUgNTEuMzYxNzg1IDAgMTAzLjk2MzgxNy0zMC44MzgzNTYgMTM0LjgzMDgyNS03MC40NDEzMjkgMjkuNTg5OTIyLTM3LjkwNDI4NSA1MS45NjU1MzUtOTEuMzA1NTE5IDQzLjgxMjg1NS0xNDUuOTgxNzkyTDY4MC44OTM2MTggNjEuNDk0NTYzek02OTguNzQ0MTcxIDI3Mi4wMTYyNzdjLTgxLjI4MzI1OCAwLTExNS41NDY2MTkgMzguNTY2MzY0LTE3MS45NzI3NDYgMzguNTY2MzY0LTU4LjAwMDk5NSAwLTEwMi4xOTU1NDMtMzguNTAxODk2LTE3Mi41MjAyMTUtMzguNTAxODk2LTY5LjAzNDI4MyAwLTE0Mi4zMjc1NjYgNDEuOTAwMjk2LTE4OC45Njk4NjIgMTEzLjU0MTk2My02NS4zMzE5NjEgMTAwLjc1MjY4Mi01NC4yNTg3NjUgMjkwLjI0ODUyNCA1MS44ODI2NDggNDUxLjg3MTU1MSAzNy44NTEwNzMgNTcuNzAyMTkgODguNjE1MjQ3IDEyMi43MTM4NTYgMTU0Ljg0ODc0MSAxMjMuMjMwNjI2IDAuNTAxNDIgMCAwLjk4NDQyMSAwIDEuNDcwNDkxIDAgNTcuODE1Nzc3IDAgNzQuODA1NzMtMzcuNTQ2MTI4IDE1NC4xMjIxOTMtMzguMDE5OTE4IDAuNDQ1MTM4IDAgMC44NTg1NTQgMCAxLjI5OTU5OSAwIDc4LjMwNDQxNCAwIDkzLjg4NzMyIDM3Ljk1ODUyIDE1MS41OTE1NTcgMzcuOTU4NTIgMC4zNzI0ODMgMCAwLjc0MjkyIDAgMS4xNDMwMzMgMCA2Ni4yODg3NTItMC42ODc2NjIgMTE5Ljc4ODIyNC03Mi42MDI1NTEgMTU3LjU4MTk5MS0xMzAuMzM3NDg3IDI3LjI4NjQ2LTQxLjM1Mzg1IDM3LjQxOTIzOC02Mi4yODI1MDggNTguNTc1MDctMTA5LjExMjA3Qzc0NC4zNjYyMzIgNjYzLjIyOTMwNyA3MTkuNjEzNDc4IDQ0Ni40NTMxNDUgODcxLjQ5OTc0NyAzNjMuMjA1MTM5Yy00Ni4yOTk0ODktNTcuNzc4OTM4LTExMS4zNDU5NDctOTEuMTg5ODg1LTE3Mi43NTQ1NTItOTEuMTg5ODg1TDY5OC43NDQxNzEgMjcyLjAxNjI3NyIgcC1pZD0iMzUxNSIvPjwvc3ZnPg==;" vertex="1" parent="1">
          <mxGeometry x="60" y="20" width="42.9" height="50" as="geometry" />
        </mxCell>
        <mxCell id="J9WYhkeCsR0DmFQqnKMW-2" value="" style="rounded=0;whiteSpace=wrap;html=1;sketch=1;glass=0;" vertex="1" parent="1">
          <mxGeometry x="159" y="70" width="360" height="40" as="geometry" />
        </mxCell>
        <mxCell id="J9WYhkeCsR0DmFQqnKMW-3" value="" style="rounded=0;whiteSpace=wrap;html=1;glass=0;sketch=1;fillStyle=zigzag;fillColor=#BDBDBD;" vertex="1" parent="1">
          <mxGeometry x="159" y="70" width="280" height="40" as="geometry" />
        </mxCell>
        <mxCell id="J9WYhkeCsR0DmFQqnKMW-4" value="" style="shape=image;verticalLabelPosition=bottom;labelBackgroundColor=#ffffff;verticalAlign=top;aspect=fixed;imageAspect=0;image=data:image/svg+xml,PHN2ZyB4bWxucz0iaHR0cDovL3d3dy53My5vcmcvMjAwMC9zdmciIHhtbG5zOnhsaW5rPSJodHRwOi8vd3d3LnczLm9yZy8xOTk5L3hsaW5rIiB0PSIxNjQwMzM1MDIwOTY3IiBjbGFzcz0iaWNvbiIgdmlld0JveD0iMTYwLjYwMDAzNjYyMTA5Mzc1IDY0IDcwMyA4OTYuMTAwMDM2NjIxMDkzOCIgdmVyc2lvbj0iMS4xIiBwLWlkPSIyNzE2IiBkYXRhLWRhcmtyZWFkZXItaW5saW5lLWZpbGw9IiIgZGF0YS1zcG0tYW5jaG9yLWlkPSJhMzEzeC43NzgxMDY5LjAuaTEiIHdpZHRoPSIxMzcuMzA0Njg3NSIgaGVpZ2h0PSIxNzUuMDE5NTM4NDAyNTU3MzciPjxkZWZzPjxzdHlsZSB0eXBlPSJ0ZXh0L2NzcyIvPjwvZGVmcz48cGF0aCBkPSJNNDQ4LjMgMjI1LjJjLTE4LjYgMC0zMiAxMy40LTMyIDMxLjlzMTMuNSAzMS45IDMyIDMxLjljMTguNiAwIDMyLTEzLjQgMzItMzEuOSAwLjEtMTguNC0xMy40LTMxLjktMzItMzEuOXoiIHAtaWQ9IjI3MTciLz48cGF0aCBkPSJNODQyLjIgMzIxLjZjLTEzLjgtMTMuOC0zMi43LTIxLjUtNTMuMi0yMS41LTMuOSAwLTcuNCAwLjQtMTAuNyAxdi0xaC0zLjZjLTUuNS0zMC42LTE4LjYtNjAuNS0zOC4xLTg3LjQtMTguNy0yNS43LTQzLTQ3LjktNzAuOC02NC45bDI1LjEtMzUuOHYtMy4zYzAtMC44IDAuNC0yLjMgMC43LTMuOCAwLjYtMi40IDEuNC01LjUgMS40LTguOSAwLTE4LjUtMTMuNS0zMS45LTMyLTMxLjktOS44IDAtMTkuNSA1LjctMjUuOSAxNS40bC0yOS4zIDQyLjFjLTMwLTkuOC02Mi40LTE1LTkzLjgtMTUtMzEuMyAwLTYzLjcgNS4yLTkzLjggMTVMMzg5IDc5LjRjLTYuNi05LjYtMTYuMS0xNS40LTI2LTE1LjQtMTguNiAwLTMyIDEzLjQtMzIgMzEuOSAwIDYuMiAyLjUgMTIuOCA2LjcgMTcuNGwyMi42IDMyLjNjLTI4LjcgMTctNTMuNSAzOS40LTcyLjIgNjUuMS0xOS40IDI2LjktMzIgNTYuOC0zNi43IDg3LjRoLTUuNXYxYy0zLjItMC42LTYuNy0xLTEwLjctMS0yMC4zIDAtMzkuMiA3LjUtNTMuMSAyMS4zLTEzLjggMTMuOC0yMS41IDMyLjYtMjEuNSA1M3YyMzVjMCAyMC4zIDcuNSAzOS4xIDIxLjQgNTIuOSAxMy44IDEzLjggMzIuOCAyMS41IDUzLjIgMjEuNSAzLjkgMCA3LjQtMC40IDEwLjctMXY5My41YzAgMjkuMiAyMy45IDUzLjEgNTMuMiA1My4xSDMzMXY1OC4zYzAgMjAuMyA3LjUgMzkuMSAyMS40IDUyLjkgMTMuOCAxMy44IDMyLjggMjEuNSA1My4yIDIxLjUgMjAuMyAwIDM5LjItNy41IDUzLjEtMjEuMyAxMy44LTEzLjggMjEuNS0zMi42IDIxLjUtNTN2LTU4LjJINTQ0djU4LjFjMCAyMC4zIDcuNSAzOS4xIDIxLjQgNTIuOSAxMy44IDEzLjggMzIuOCAyMS41IDUzLjIgMjEuNSAyMC40IDAgMzkuMi03LjUgNTMuMS0yMS42IDEzLjgtMTMuOCAyMS41LTMyLjYgMjEuNS01M3YtNTguMmgzMS45YzI5LjMgMCA1My4yLTIzLjggNTMuMi01My4xdi05MS40YzMuMiAwLjYgNi43IDEgMTAuNyAxIDIwLjMgMCAzOS4yLTcuNSA1My4xLTIxLjMgMTMuOC0xMy44IDIxLjUtMzIuNiAyMS41LTUzdi0yMzVjLTAuMS0yMC4zLTcuNi0zOS0yMS40LTUyLjl6TTI0NiA2MDkuNmMwIDYuOC0zLjkgMTAuNi0xMC43IDEwLjYtNi44IDAtMTAuNy0zLjgtMTAuNy0xMC42VjM3NC41YzAtNi44IDMuOS0xMC42IDEwLjctMTAuNiA2LjggMCAxMC43IDMuOCAxMC43IDEwLjZ2MjM1LjF6IG0xMzEuMS0zOTYuOGMzNy41LTI3LjMgODUuMy00Mi4zIDEzNS00Mi4zczk3LjUgMTUuMSAxMzUgNDIuNWMzMi40IDIzLjcgNTQuMiA1NC4yIDYyLjcgODcuNUgzMTQuNGM4LjUtMzMuNCAzMC41LTY0IDYyLjctODcuN3ogbTM5LjMgNjc0LjdjLTAuNiA1LjYtNC40IDguNy0xMC41IDguNy02LjggMC0xMC43LTMuOC0xMC43LTEwLjZ2LTU4LjJoMjEuMnY2MC4xeiBtMjAyLjMgOC43Yy02LjggMC0xMC43LTMuOC0xMC43LTEwLjZ2LTU4LjJoMjEuMnY2MC4xYy0wLjYgNS42LTQuMyA4LjctMTAuNSA4Ljd6IG05NS44LTEzMi42SDMwOS45VjM2NGg0MDQuNnYzOTkuNnogbTg1LjItMTU0YzAgNi44LTMuOSAxMC42LTEwLjcgMTAuNi02LjggMC0xMC43LTMuOC0xMC43LTEwLjZWMzc0LjVjMC02LjggMy45LTEwLjYgMTAuNy0xMC42IDYuOCAwIDEwLjcgMy44IDEwLjcgMTAuNnYyMzUuMXoiIHAtaWQ9IjI3MTgiLz48cGF0aCBkPSJNNTc2LjEgMjI1LjJjLTE4LjYgMC0zMiAxMy40LTMyIDMxLjlzMTMuNSAzMS45IDMyIDMxLjljMTguNiAwIDMyLjEtMTMuNCAzMi4xLTMyLTAuMS0xOC42LTEzLjQtMzEuOC0zMi4xLTMxLjh6IiBwLWlkPSIyNzE5Ii8+PC9zdmc+;" vertex="1" parent="1">
          <mxGeometry x="61.879999999999995" y="196" width="39.14" height="50" as="geometry" />
        </mxCell>
        <mxCell id="J9WYhkeCsR0DmFQqnKMW-5" value="" style="rounded=0;whiteSpace=wrap;html=1;sketch=1;glass=0;" vertex="1" parent="1">
          <mxGeometry x="159" y="240" width="740" height="40" as="geometry" />
        </mxCell>
        <mxCell id="J9WYhkeCsR0DmFQqnKMW-6" value="" style="rounded=0;whiteSpace=wrap;html=1;glass=0;sketch=1;fillStyle=zigzag;fillColor=#BDBDBD;" vertex="1" parent="1">
          <mxGeometry x="159" y="240" width="520" height="40" as="geometry" />
        </mxCell>
        <mxCell id="J9WYhkeCsR0DmFQqnKMW-7" value="优化后 1.40s" style="text;html=1;align=center;verticalAlign=middle;resizable=0;points=[];autosize=1;strokeColor=none;fillColor=none;" vertex="1" parent="1">
          <mxGeometry x="390" y="120" width="80" height="20" as="geometry" />
        </mxCell>
        <mxCell id="J9WYhkeCsR0DmFQqnKMW-8" value="优化前 1.80s" style="text;html=1;align=center;verticalAlign=middle;resizable=0;points=[];autosize=1;strokeColor=none;fillColor=none;" vertex="1" parent="1">
          <mxGeometry x="480" y="120" width="80" height="20" as="geometry" />
        </mxCell>
        <mxCell id="J9WYhkeCsR0DmFQqnKMW-9" value="优化前 3.70s" style="text;html=1;align=center;verticalAlign=middle;resizable=0;points=[];autosize=1;strokeColor=none;fillColor=none;" vertex="1" parent="1">
          <mxGeometry x="860" y="291" width="80" height="20" as="geometry" />
        </mxCell>
        <mxCell id="J9WYhkeCsR0DmFQqnKMW-10" value="优化前 2.60s" style="text;html=1;align=center;verticalAlign=middle;resizable=0;points=[];autosize=1;strokeColor=none;fillColor=none;" vertex="1" parent="1">
          <mxGeometry x="640" y="291" width="80" height="20" as="geometry" />
        </mxCell>
        <mxCell id="J9WYhkeCsR0DmFQqnKMW-11" value="" style="rounded=0;whiteSpace=wrap;html=1;sketch=1;glass=0;" vertex="1" parent="1">
          <mxGeometry x="159" y="-10" width="200" height="40" as="geometry" />
        </mxCell>
        <mxCell id="J9WYhkeCsR0DmFQqnKMW-12" value="" style="rounded=0;whiteSpace=wrap;html=1;glass=0;sketch=1;fillStyle=zigzag;fillColor=#BDBDBD;" vertex="1" parent="1">
          <mxGeometry x="159" y="-10" width="54" height="40" as="geometry" />
        </mxCell>
        <mxCell id="J9WYhkeCsR0DmFQqnKMW-13" value="优化后 276.4ms" style="text;html=1;align=center;verticalAlign=middle;resizable=0;points=[];autosize=1;strokeColor=none;fillColor=none;" vertex="1" parent="1">
          <mxGeometry x="159" y="40" width="100" height="20" as="geometry" />
        </mxCell>
        <mxCell id="J9WYhkeCsR0DmFQqnKMW-14" value="优化前 990.7ms" style="text;html=1;align=center;verticalAlign=middle;resizable=0;points=[];autosize=1;strokeColor=none;fillColor=none;" vertex="1" parent="1">
          <mxGeometry x="310" y="40" width="100" height="20" as="geometry" />
        </mxCell>
        <mxCell id="J9WYhkeCsR0DmFQqnKMW-15" value="前端&lt;br&gt;处理" style="text;html=1;align=center;verticalAlign=middle;resizable=0;points=[];autosize=1;strokeColor=none;fillColor=none;fontSize=16;" vertex="1" parent="1">
          <mxGeometry x="109" y="-10" width="50" height="40" as="geometry" />
        </mxCell>
        <mxCell id="J9WYhkeCsR0DmFQqnKMW-16" value="总体&lt;br&gt;耗时" style="text;html=1;align=center;verticalAlign=middle;resizable=0;points=[];autosize=1;strokeColor=none;fillColor=none;fontSize=16;" vertex="1" parent="1">
          <mxGeometry x="109" y="70" width="50" height="40" as="geometry" />
        </mxCell>
        <mxCell id="J9WYhkeCsR0DmFQqnKMW-17" value="" style="rounded=0;whiteSpace=wrap;html=1;sketch=1;glass=0;" vertex="1" parent="1">
          <mxGeometry x="159" y="160" width="582" height="40" as="geometry" />
        </mxCell>
        <mxCell id="J9WYhkeCsR0DmFQqnKMW-18" value="" style="rounded=0;whiteSpace=wrap;html=1;glass=0;sketch=1;fillStyle=zigzag;fillColor=#BDBDBD;" vertex="1" parent="1">
          <mxGeometry x="159" y="160" width="224" height="40" as="geometry" />
        </mxCell>
        <mxCell id="J9WYhkeCsR0DmFQqnKMW-19" value="优化后 2.81s" style="text;html=1;align=center;verticalAlign=middle;resizable=0;points=[];autosize=1;strokeColor=none;fillColor=none;" vertex="1" parent="1">
          <mxGeometry x="700" y="211" width="80" height="20" as="geometry" />
        </mxCell>
        <mxCell id="J9WYhkeCsR0DmFQqnKMW-20" value="优化前 1.12s" style="text;html=1;align=center;verticalAlign=middle;resizable=0;points=[];autosize=1;strokeColor=none;fillColor=none;" vertex="1" parent="1">
          <mxGeometry x="350" y="211" width="80" height="20" as="geometry" />
        </mxCell>
        <mxCell id="J9WYhkeCsR0DmFQqnKMW-21" value="前端&lt;br&gt;处理" style="text;html=1;align=center;verticalAlign=middle;resizable=0;points=[];autosize=1;strokeColor=none;fillColor=none;fontSize=16;" vertex="1" parent="1">
          <mxGeometry x="109" y="161" width="50" height="40" as="geometry" />
        </mxCell>
        <mxCell id="J9WYhkeCsR0DmFQqnKMW-22" value="总体&lt;br&gt;耗时" style="text;html=1;align=center;verticalAlign=middle;resizable=0;points=[];autosize=1;strokeColor=none;fillColor=none;fontSize=16;" vertex="1" parent="1">
          <mxGeometry x="109" y="241" width="50" height="40" as="geometry" />
        </mxCell>
      </root>
    </mxGraphModel>
  </diagram>
</mxfile>
